<svg fill="#7a7980ff" xmlns="http://www.w3.org/2000/svg"  viewBox="0 0 24 24" width="48px" height="48px"><path d="M 15.5 1.25 C 12.602 1.25 10.25 3.602 10.25 6.5 C 10.25 9.398 12.602 11.75 15.5 11.75 C 18.398 11.75 20.75 9.398 20.75 6.5 C 20.75 3.602 18.398 1.25 15.5 1.25 z M 15.5 2.75 C 17.57 2.75 19.25 4.43 19.25 6.5 C 19.25 8.57 17.57 10.25 15.5 10.25 C 13.43 10.25 11.75 8.57 11.75 6.5 C 11.75 4.43 13.43 2.75 15.5 2.75 z M 15.5 4.5 C 15.086 4.5 14.75 4.836 14.75 5.25 L 14.75 8 C 14.75 8.414 15.086 8.75 15.5 8.75 C 15.914 8.75 16.25 8.414 16.25 8 L 16.25 5.25 C 16.25 4.836 15.914 4.5 15.5 4.5 z M 2 12.25 C 1.586 12.25 1.25 12.586 1.25 13 L 1.25 22 C 1.25 22.414 1.586 22.75 2 22.75 L 6 22.75 C 6.414 22.75 6.75 22.414 6.75 22 L 6.75 21.041016 L 11.115234 22.494141 C 11.692234 22.687141 12.317578 22.683422 12.892578 22.482422 C 14.482578 21.926422 18.623219 20.476078 20.824219 19.705078 C 21.389219 19.508078 21.847703 19.089922 22.095703 18.544922 C 22.343703 17.999922 22.358719 17.375312 22.136719 16.820312 L 22.134766 16.818359 C 21.742766 15.839359 20.678109 15.31175 19.662109 15.59375 C 18.387233 15.947511 17.073644 16.311546 16.119141 16.576172 C 16.115529 16.378621 16.095555 16.181513 16.039062 15.988281 C 15.864062 15.386281 15.445766 14.883516 14.884766 14.603516 L 10.990234 12.65625 C 10.409234 12.36525 9.7433281 12.290359 9.1113281 12.443359 C 8.2863654 12.643677 7.4375462 12.850451 6.75 13.017578 L 6.75 13 C 6.75 12.586 6.414 12.25 6 12.25 L 2 12.25 z M 2.75 13.75 L 5.25 13.75 L 5.25 21.25 L 2.75 21.25 L 2.75 13.75 z M 9.9003906 13.875 C 10.045016 13.89125 10.187812 13.932047 10.320312 13.998047 L 14.212891 15.945312 C 14.400891 16.038312 14.541609 16.207203 14.599609 16.408203 C 14.658609 16.609203 14.629484 16.825859 14.521484 17.005859 C 14.347484 17.295859 13.981688 17.402953 13.679688 17.251953 L 10.835938 15.828125 C 10.465938 15.643125 10.013125 15.793063 9.828125 16.164062 C 9.643125 16.534063 9.7930625 16.986875 10.164062 17.171875 C 10.164062 17.171875 11.826813 18.00275 13.007812 18.59375 C 13.767831 18.97338 14.650114 18.858309 15.285156 18.363281 C 15.285532 18.362989 15.286734 18.363574 15.287109 18.363281 L 20.0625 17.037109 C 20.3415 16.960109 20.635187 17.106 20.742188 17.375 L 20.742188 17.378906 C 20.813188 17.554906 20.808469 17.750828 20.730469 17.923828 C 20.651469 18.095828 20.507125 18.228016 20.328125 18.291016 L 12.396484 21.066406 C 12.135484 21.158406 11.852844 21.160266 11.589844 21.072266 L 6.75 19.458984 L 6.75 14.5625 C 7.2867323 14.432026 8.5158456 14.132779 9.4648438 13.902344 C 9.6088438 13.867344 9.7557656 13.85875 9.9003906 13.875 z"/></svg>