<svg fill="#68686dff" xmlns="http://www.w3.org/2000/svg"  viewBox="0 0 50 50" width="50px" height="50px"><path d="M 8.96875 6.972656 C 8.355469 6.980469 7.777344 7.273438 7.40625 7.765625 L 2.585938 12.585938 C 2.0625 13.085938 1.851563 13.832031 2.035156 14.535156 C 2.21875 15.234375 2.765625 15.78125 3.464844 15.964844 C 4.167969 16.148438 4.914063 15.9375 5.414063 15.414063 L 7 13.828125 L 7 31 C 7 36.492188 11.507813 41 17 41 C 22.492188 41 27 36.492188 27 31 L 27 19 C 27 15.691406 29.691406 13 33 13 C 36.308594 13 39 15.691406 39 19 L 39 36.195313 L 37.425781 34.59375 C 37.050781 34.207031 36.535156 33.984375 35.996094 33.980469 C 35.179688 33.972656 34.445313 34.460938 34.132813 35.214844 C 33.820313 35.964844 33.996094 36.832031 34.574219 37.40625 L 39.574219 42.480469 C 39.949219 42.863281 40.464844 43.078125 41 43.078125 C 41.535156 43.078125 42.050781 42.863281 42.425781 42.480469 L 47.425781 37.40625 C 48.203125 36.617188 48.191406 35.351563 47.40625 34.574219 C 46.617188 33.796875 45.351563 33.808594 44.574219 34.59375 L 43 36.195313 L 43 19 C 43 13.507813 38.492188 9 33 9 C 32.753906 9.003906 32.507813 9.054688 32.277344 9.148438 C 27.136719 9.539063 23 13.765625 23 19 L 23 31 C 23 34.308594 20.308594 37 17 37 C 13.691406 37 11 34.308594 11 31 L 11 13.828125 L 12.585938 15.414063 C 13.085938 15.9375 13.832031 16.148438 14.535156 15.964844 C 15.234375 15.78125 15.78125 15.234375 15.964844 14.535156 C 16.148438 13.832031 15.9375 13.085938 15.414063 12.585938 L 10.585938 7.757813 C 10.203125 7.253906 9.601563 6.964844 8.96875 6.972656 Z"/></svg>